<mxfile host="app.diagrams.net" agent="Mozilla/5.0 (Macintosh; Intel Mac OS X 10_15_7) AppleWebKit/537.36 (KHTML, like Gecko) Chrome/135.0.0.0 Safari/537.36" version="26.1.1">
  <diagram name="Page-1" id="VQ5vUjXPLSlQ0f5HDl9J">
    <mxGraphModel dx="984" dy="1653" grid="1" gridSize="10" guides="1" tooltips="1" connect="1" arrows="1" fold="1" page="1" pageScale="1" pageWidth="850" pageHeight="1100" math="0" shadow="0">
      <root>
        <mxCell id="0" />
        <mxCell id="1" parent="0" />
        <mxCell id="v8Ap-ekf71m2hx4Rmkp3-6" style="edgeStyle=orthogonalEdgeStyle;rounded=0;orthogonalLoop=1;jettySize=auto;html=1;exitX=1;exitY=0.5;exitDx=0;exitDy=0;entryX=0;entryY=0.5;entryDx=0;entryDy=0;" edge="1" parent="1" source="v8Ap-ekf71m2hx4Rmkp3-4" target="v8Ap-ekf71m2hx4Rmkp3-5">
          <mxGeometry relative="1" as="geometry" />
        </mxCell>
        <mxCell id="v8Ap-ekf71m2hx4Rmkp3-4" value="Client" style="rounded=1;whiteSpace=wrap;html=1;fillColor=#e1d5e7;strokeColor=#9673a6;" vertex="1" parent="1">
          <mxGeometry width="60" height="40" as="geometry" />
        </mxCell>
        <mxCell id="v8Ap-ekf71m2hx4Rmkp3-36" style="edgeStyle=orthogonalEdgeStyle;rounded=0;orthogonalLoop=1;jettySize=auto;html=1;exitX=1;exitY=0.5;exitDx=0;exitDy=0;entryX=0;entryY=0.5;entryDx=0;entryDy=0;" edge="1" parent="1" source="v8Ap-ekf71m2hx4Rmkp3-5" target="v8Ap-ekf71m2hx4Rmkp3-7">
          <mxGeometry relative="1" as="geometry" />
        </mxCell>
        <mxCell id="v8Ap-ekf71m2hx4Rmkp3-61" style="edgeStyle=orthogonalEdgeStyle;rounded=0;orthogonalLoop=1;jettySize=auto;html=1;entryX=0.5;entryY=0;entryDx=0;entryDy=0;dashed=1;exitX=0;exitY=0.5;exitDx=0;exitDy=0;" edge="1" parent="1" source="v8Ap-ekf71m2hx4Rmkp3-60" target="v8Ap-ekf71m2hx4Rmkp3-5">
          <mxGeometry relative="1" as="geometry">
            <mxPoint x="140" y="-50" as="sourcePoint" />
          </mxGeometry>
        </mxCell>
        <mxCell id="v8Ap-ekf71m2hx4Rmkp3-62" value="handler + (optional) interceptors" style="edgeLabel;html=1;align=center;verticalAlign=middle;resizable=0;points=[];labelBackgroundColor=none;" vertex="1" connectable="0" parent="v8Ap-ekf71m2hx4Rmkp3-61">
          <mxGeometry x="-0.1863" y="-1" relative="1" as="geometry">
            <mxPoint x="-57" y="-8" as="offset" />
          </mxGeometry>
        </mxCell>
        <mxCell id="v8Ap-ekf71m2hx4Rmkp3-5" value="DispatcherServlet" style="rounded=1;whiteSpace=wrap;html=1;fillColor=#dae8fc;strokeColor=#6c8ebf;" vertex="1" parent="1">
          <mxGeometry x="130" width="120" height="40" as="geometry" />
        </mxCell>
        <mxCell id="v8Ap-ekf71m2hx4Rmkp3-10" style="edgeStyle=orthogonalEdgeStyle;rounded=0;orthogonalLoop=1;jettySize=auto;html=1;exitX=0.5;exitY=1;exitDx=0;exitDy=0;entryX=0.5;entryY=0;entryDx=0;entryDy=0;" edge="1" parent="1" source="v8Ap-ekf71m2hx4Rmkp3-7" target="v8Ap-ekf71m2hx4Rmkp3-9">
          <mxGeometry relative="1" as="geometry" />
        </mxCell>
        <mxCell id="v8Ap-ekf71m2hx4Rmkp3-7" value="HandlerAdapter" style="rounded=1;whiteSpace=wrap;html=1;fillColor=#dae8fc;strokeColor=#6c8ebf;" vertex="1" parent="1">
          <mxGeometry x="320" width="120" height="40" as="geometry" />
        </mxCell>
        <mxCell id="v8Ap-ekf71m2hx4Rmkp3-12" style="edgeStyle=orthogonalEdgeStyle;rounded=0;orthogonalLoop=1;jettySize=auto;html=1;exitX=0.5;exitY=1;exitDx=0;exitDy=0;entryX=0.5;entryY=0;entryDx=0;entryDy=0;" edge="1" parent="1" source="v8Ap-ekf71m2hx4Rmkp3-9" target="v8Ap-ekf71m2hx4Rmkp3-11">
          <mxGeometry relative="1" as="geometry" />
        </mxCell>
        <mxCell id="v8Ap-ekf71m2hx4Rmkp3-15" value="view name" style="edgeLabel;html=1;align=center;verticalAlign=middle;resizable=0;points=[];labelBackgroundColor=none;" vertex="1" connectable="0" parent="v8Ap-ekf71m2hx4Rmkp3-12">
          <mxGeometry x="-0.1321" relative="1" as="geometry">
            <mxPoint x="-31" y="-1" as="offset" />
          </mxGeometry>
        </mxCell>
        <mxCell id="v8Ap-ekf71m2hx4Rmkp3-9" value="Controller" style="rounded=1;whiteSpace=wrap;html=1;fillColor=#f8cecc;strokeColor=#b85450;" vertex="1" parent="1">
          <mxGeometry x="320" y="80" width="120" height="40" as="geometry" />
        </mxCell>
        <mxCell id="v8Ap-ekf71m2hx4Rmkp3-17" style="edgeStyle=orthogonalEdgeStyle;rounded=0;orthogonalLoop=1;jettySize=auto;html=1;exitX=0;exitY=0.5;exitDx=0;exitDy=0;entryX=1;entryY=0.5;entryDx=0;entryDy=0;" edge="1" parent="1" source="v8Ap-ekf71m2hx4Rmkp3-11" target="v8Ap-ekf71m2hx4Rmkp3-16">
          <mxGeometry relative="1" as="geometry" />
        </mxCell>
        <mxCell id="v8Ap-ekf71m2hx4Rmkp3-11" value="ViewResolver" style="rounded=1;whiteSpace=wrap;html=1;fillColor=#ffe6cc;strokeColor=#d79b00;" vertex="1" parent="1">
          <mxGeometry x="320" y="160" width="120" height="40" as="geometry" />
        </mxCell>
        <mxCell id="v8Ap-ekf71m2hx4Rmkp3-32" style="edgeStyle=orthogonalEdgeStyle;rounded=0;orthogonalLoop=1;jettySize=auto;html=1;exitX=0;exitY=0.5;exitDx=0;exitDy=0;entryX=1;entryY=0.5;entryDx=0;entryDy=0;" edge="1" parent="1" source="v8Ap-ekf71m2hx4Rmkp3-16" target="v8Ap-ekf71m2hx4Rmkp3-31">
          <mxGeometry relative="1" as="geometry" />
        </mxCell>
        <mxCell id="v8Ap-ekf71m2hx4Rmkp3-35" value="+ data" style="edgeLabel;html=1;align=center;verticalAlign=middle;resizable=0;points=[];labelBackgroundColor=none;" vertex="1" connectable="0" parent="v8Ap-ekf71m2hx4Rmkp3-32">
          <mxGeometry x="-0.0798" y="-1" relative="1" as="geometry">
            <mxPoint y="-6" as="offset" />
          </mxGeometry>
        </mxCell>
        <mxCell id="v8Ap-ekf71m2hx4Rmkp3-16" value="View" style="rounded=1;whiteSpace=wrap;html=1;fillColor=#ffe6cc;strokeColor=#d79b00;" vertex="1" parent="1">
          <mxGeometry x="240" y="160" width="50" height="40" as="geometry" />
        </mxCell>
        <mxCell id="v8Ap-ekf71m2hx4Rmkp3-34" style="edgeStyle=orthogonalEdgeStyle;rounded=0;orthogonalLoop=1;jettySize=auto;html=1;exitX=0;exitY=0.5;exitDx=0;exitDy=0;entryX=1;entryY=0.5;entryDx=0;entryDy=0;" edge="1" parent="1" source="v8Ap-ekf71m2hx4Rmkp3-31" target="v8Ap-ekf71m2hx4Rmkp3-33">
          <mxGeometry relative="1" as="geometry" />
        </mxCell>
        <mxCell id="v8Ap-ekf71m2hx4Rmkp3-31" value="View Engine" style="rounded=1;whiteSpace=wrap;html=1;fillColor=#ffe6cc;strokeColor=#d79b00;" vertex="1" parent="1">
          <mxGeometry x="90" y="160" width="80" height="40" as="geometry" />
        </mxCell>
        <mxCell id="v8Ap-ekf71m2hx4Rmkp3-37" style="edgeStyle=orthogonalEdgeStyle;rounded=0;orthogonalLoop=1;jettySize=auto;html=1;exitX=0.5;exitY=0;exitDx=0;exitDy=0;" edge="1" parent="1" source="v8Ap-ekf71m2hx4Rmkp3-33" target="v8Ap-ekf71m2hx4Rmkp3-4">
          <mxGeometry relative="1" as="geometry" />
        </mxCell>
        <mxCell id="v8Ap-ekf71m2hx4Rmkp3-33" value="HTML" style="rounded=1;whiteSpace=wrap;html=1;fillColor=#ffe6cc;strokeColor=#d79b00;" vertex="1" parent="1">
          <mxGeometry y="160" width="60" height="40" as="geometry" />
        </mxCell>
        <mxCell id="v8Ap-ekf71m2hx4Rmkp3-38" style="edgeStyle=orthogonalEdgeStyle;rounded=0;orthogonalLoop=1;jettySize=auto;html=1;exitX=1;exitY=0.5;exitDx=0;exitDy=0;entryX=0;entryY=0.5;entryDx=0;entryDy=0;" edge="1" source="v8Ap-ekf71m2hx4Rmkp3-39" target="v8Ap-ekf71m2hx4Rmkp3-41" parent="1">
          <mxGeometry relative="1" as="geometry" />
        </mxCell>
        <mxCell id="v8Ap-ekf71m2hx4Rmkp3-39" value="Client" style="rounded=1;whiteSpace=wrap;html=1;fillColor=#e1d5e7;strokeColor=#9673a6;" vertex="1" parent="1">
          <mxGeometry x="20" y="400" width="60" height="40" as="geometry" />
        </mxCell>
        <mxCell id="v8Ap-ekf71m2hx4Rmkp3-40" style="rounded=0;orthogonalLoop=1;jettySize=auto;html=1;entryX=0.5;entryY=0;entryDx=0;entryDy=0;edgeStyle=orthogonalEdgeStyle;dashed=1;exitX=0;exitY=0.5;exitDx=0;exitDy=0;" edge="1" source="v8Ap-ekf71m2hx4Rmkp3-44" target="v8Ap-ekf71m2hx4Rmkp3-41" parent="1">
          <mxGeometry relative="1" as="geometry">
            <mxPoint x="160" y="370" as="sourcePoint" />
          </mxGeometry>
        </mxCell>
        <mxCell id="v8Ap-ekf71m2hx4Rmkp3-63" value="handler + (optional) interceptors" style="edgeLabel;html=1;align=center;verticalAlign=middle;resizable=0;points=[];labelBackgroundColor=none;" vertex="1" connectable="0" parent="v8Ap-ekf71m2hx4Rmkp3-40">
          <mxGeometry x="-0.2904" y="-3" relative="1" as="geometry">
            <mxPoint x="-47" y="-6" as="offset" />
          </mxGeometry>
        </mxCell>
        <mxCell id="v8Ap-ekf71m2hx4Rmkp3-59" style="edgeStyle=orthogonalEdgeStyle;rounded=0;orthogonalLoop=1;jettySize=auto;html=1;exitX=1;exitY=0.5;exitDx=0;exitDy=0;entryX=0;entryY=0.5;entryDx=0;entryDy=0;" edge="1" parent="1" source="v8Ap-ekf71m2hx4Rmkp3-41" target="v8Ap-ekf71m2hx4Rmkp3-57">
          <mxGeometry relative="1" as="geometry" />
        </mxCell>
        <mxCell id="v8Ap-ekf71m2hx4Rmkp3-41" value="DispatcherServlet" style="rounded=1;whiteSpace=wrap;html=1;fillColor=#dae8fc;strokeColor=#6c8ebf;" vertex="1" parent="1">
          <mxGeometry x="120" y="400" width="120" height="40" as="geometry" />
        </mxCell>
        <mxCell id="v8Ap-ekf71m2hx4Rmkp3-42" style="edgeStyle=orthogonalEdgeStyle;rounded=0;orthogonalLoop=1;jettySize=auto;html=1;exitX=0.5;exitY=1;exitDx=0;exitDy=0;entryX=0.5;entryY=0;entryDx=0;entryDy=0;" edge="1" source="v8Ap-ekf71m2hx4Rmkp3-57" target="v8Ap-ekf71m2hx4Rmkp3-47" parent="1">
          <mxGeometry relative="1" as="geometry" />
        </mxCell>
        <mxCell id="v8Ap-ekf71m2hx4Rmkp3-44" value="HandlerMapping" style="rounded=1;whiteSpace=wrap;html=1;fillColor=#dae8fc;strokeColor=#6c8ebf;" vertex="1" parent="1">
          <mxGeometry x="280" y="330" width="120" height="40" as="geometry" />
        </mxCell>
        <mxCell id="v8Ap-ekf71m2hx4Rmkp3-45" style="edgeStyle=orthogonalEdgeStyle;rounded=0;orthogonalLoop=1;jettySize=auto;html=1;exitX=0.5;exitY=1;exitDx=0;exitDy=0;entryX=0.5;entryY=0;entryDx=0;entryDy=0;" edge="1" source="v8Ap-ekf71m2hx4Rmkp3-47" target="v8Ap-ekf71m2hx4Rmkp3-49" parent="1">
          <mxGeometry relative="1" as="geometry" />
        </mxCell>
        <mxCell id="v8Ap-ekf71m2hx4Rmkp3-46" value="POJO" style="edgeLabel;html=1;align=center;verticalAlign=middle;resizable=0;points=[];labelBackgroundColor=none;" vertex="1" connectable="0" parent="v8Ap-ekf71m2hx4Rmkp3-45">
          <mxGeometry x="-0.1321" relative="1" as="geometry">
            <mxPoint x="-21" y="-1" as="offset" />
          </mxGeometry>
        </mxCell>
        <mxCell id="v8Ap-ekf71m2hx4Rmkp3-47" value="Controller" style="rounded=1;whiteSpace=wrap;html=1;fillColor=#f8cecc;strokeColor=#b85450;" vertex="1" parent="1">
          <mxGeometry x="280" y="480" width="120" height="40" as="geometry" />
        </mxCell>
        <mxCell id="v8Ap-ekf71m2hx4Rmkp3-48" style="edgeStyle=orthogonalEdgeStyle;rounded=0;orthogonalLoop=1;jettySize=auto;html=1;exitX=0;exitY=0.5;exitDx=0;exitDy=0;" edge="1" source="v8Ap-ekf71m2hx4Rmkp3-49" target="v8Ap-ekf71m2hx4Rmkp3-56" parent="1">
          <mxGeometry relative="1" as="geometry">
            <mxPoint x="250" y="580" as="targetPoint" />
          </mxGeometry>
        </mxCell>
        <mxCell id="v8Ap-ekf71m2hx4Rmkp3-49" value="HttpMessageConverter" style="rounded=1;whiteSpace=wrap;html=1;fillColor=#ffe6cc;strokeColor=#d79b00;" vertex="1" parent="1">
          <mxGeometry x="265" y="560" width="150" height="40" as="geometry" />
        </mxCell>
        <mxCell id="v8Ap-ekf71m2hx4Rmkp3-55" style="edgeStyle=orthogonalEdgeStyle;rounded=0;orthogonalLoop=1;jettySize=auto;html=1;exitX=0.5;exitY=0;exitDx=0;exitDy=0;" edge="1" source="v8Ap-ekf71m2hx4Rmkp3-56" target="v8Ap-ekf71m2hx4Rmkp3-39" parent="1">
          <mxGeometry relative="1" as="geometry" />
        </mxCell>
        <mxCell id="v8Ap-ekf71m2hx4Rmkp3-56" value="Response Body (JSON/XML)" style="rounded=1;whiteSpace=wrap;html=1;fillColor=#ffe6cc;strokeColor=#d79b00;" vertex="1" parent="1">
          <mxGeometry y="560" width="100" height="40" as="geometry" />
        </mxCell>
        <mxCell id="v8Ap-ekf71m2hx4Rmkp3-57" value="HandlerAdapter" style="rounded=1;whiteSpace=wrap;html=1;fillColor=#dae8fc;strokeColor=#6c8ebf;" vertex="1" parent="1">
          <mxGeometry x="280" y="400" width="120" height="40" as="geometry" />
        </mxCell>
        <mxCell id="v8Ap-ekf71m2hx4Rmkp3-60" value="HandlerMapping" style="rounded=1;whiteSpace=wrap;html=1;fillColor=#dae8fc;strokeColor=#6c8ebf;" vertex="1" parent="1">
          <mxGeometry x="320" y="-70" width="120" height="40" as="geometry" />
        </mxCell>
      </root>
    </mxGraphModel>
  </diagram>
</mxfile>
